<?xml version="1.0" encoding="UTF-8"?>
<svg width="30" height="30" viewBox="0 0 30 30" fill="none" xmlns="http://www.w3.org/2000/svg">
  <path d="M27.5 21.65V25.65C27.5015 26.0793 27.3787 26.5006 27.1453 26.8655C26.9118 27.2305 26.5778 27.5241 26.1842 27.7116C25.7906 27.8991 25.3545 27.9735 24.9228 27.9266C24.4912 27.8797 24.0799 27.7132 23.7375 27.45C19.8806 24.8213 16.5046 21.4459 13.875 17.5875C11.2422 13.7322 9.4344 9.31105 8.6 4.66249C8.47513 4.23016 8.46865 3.77446 8.58115 3.33859C8.69365 2.90272 8.92131 2.50361 9.24069 2.18423C9.56008 1.86484 9.95918 1.63718 10.3951 1.52468C10.8309 1.41218 11.2866 1.41867 11.7189 1.54354H15.7189C16.5003 1.53355 17.2584 1.80359 17.8583 2.30173C18.4581 2.79987 18.8614 3.49293 18.9939 4.26249C19.2465 5.72835 19.6513 7.16418 20.2 8.54999C20.406 9.0343 20.4582 9.56448 20.35 10.0737C20.2417 10.5829 19.9779 11.0462 19.5939 11.4L17.7375 13.2562C20.1391 16.7954 23.2044 19.8607 26.7437 22.2625L28.6 20.4062C28.9537 20.0222 29.417 19.7585 29.9262 19.6502C30.4355 19.5419 30.9656 19.5941 31.45 19.8C32.8358 20.3488 34.2716 20.7535 35.7375 21.0062C36.5174 21.1412 37.2182 21.5526 37.7188 22.1627C38.2194 22.7729 38.487 23.5433 38.4689 24.3312L27.5 21.65Z" stroke="#0F52BA" stroke-width="1.5" stroke-linecap="round" stroke-linejoin="round"/>
</svg>