<?xml version="1.0" encoding="UTF-8"?>
<svg width="30" height="30" viewBox="0 0 30 30" fill="none" xmlns="http://www.w3.org/2000/svg">
  <path d="M15 16.25C17.0711 16.25 18.75 14.5711 18.75 12.5C18.75 10.4289 17.0711 8.75 15 8.75C12.9289 8.75 11.25 10.4289 11.25 12.5C11.25 14.5711 12.9289 16.25 15 16.25Z" stroke="#0F52BA" stroke-width="1.5" stroke-linecap="round" stroke-linejoin="round"/>
  <path d="M24.375 12.5C24.375 21.25 15 27.5 15 27.5C15 27.5 5.625 21.25 5.625 12.5C5.625 9.8478 6.7779 7.30429 8.73318 5.34932C10.6884 3.39435 13.2322 2.24188 15.8844 2.24188C18.5366 2.24188 21.0803 3.39435 23.0355 5.34932C24.9908 7.30429 26.1437 9.8478 26.1437 12.5H24.375Z" stroke="#0F52BA" stroke-width="1.5" stroke-linecap="round" stroke-linejoin="round"/>
</svg>