<?xml version="1.0" encoding="UTF-8"?>
<svg width="30" height="30" viewBox="0 0 30 30" fill="none" xmlns="http://www.w3.org/2000/svg">
  <path d="M15 18.75C17.0711 18.75 18.75 17.0711 18.75 15C18.75 12.9289 17.0711 11.25 15 11.25C12.9289 11.25 11.25 12.9289 11.25 15C11.25 17.0711 12.9289 18.75 15 18.75Z" stroke="#0F52BA" stroke-width="1.5" stroke-linecap="round" stroke-linejoin="round"/>
  <path d="M23.75 15C23.75 21.25 15 26.25 15 26.25C15 26.25 6.25 21.25 6.25 15C6.25 12.3478 7.30357 9.8043 9.17588 7.92893C11.0482 6.05357 13.5918 5 16.25 5" stroke="#0F52BA" stroke-width="1.5" stroke-linecap="round" stroke-linejoin="round"/>
  <path d="M23.125 7.5L16.875 13.75" stroke="#0F52BA" stroke-width="1.5" stroke-linecap="round" stroke-linejoin="round"/>
  <path d="M20 6.25L23.75 10" stroke="#0F52BA" stroke-width="1.5" stroke-linecap="round" stroke-linejoin="round"/>
</svg>