<?xml version="1.0" encoding="UTF-8"?>
<svg width="30" height="30" viewBox="0 0 30 30" fill="none" xmlns="http://www.w3.org/2000/svg">
  <path d="M15 17.5C16.3807 17.5 17.5 16.3807 17.5 15C17.5 13.6193 16.3807 12.5 15 12.5C13.6193 12.5 12.5 13.6193 12.5 15C12.5 16.3807 13.6193 17.5 15 17.5Z" stroke="#0F52BA" stroke-width="1.5" stroke-linecap="round" stroke-linejoin="round"/>
  <path d="M22.5 17.5C22.3837 17.8855 22.3837 18.3022 22.5 18.6877C22.6163 19.0732 22.8463 19.4181 23.1612 19.6737L23.275 19.7875C23.5314 20.0434 23.7366 20.3482 23.8787 20.6844C24.0208 21.0205 24.0967 21.3815 24.1022 21.7473C24.1077 22.1131 24.0428 22.4766 23.9108 22.8171C23.7788 23.1576 23.5827 23.4683 23.334 23.7314C23.0852 23.9946 22.7865 24.2056 22.4538 24.3525C22.1212 24.4994 21.7612 24.5796 21.3955 24.5886C21.0298 24.5975 20.666 24.5351 20.325 24.4052C19.984 24.2753 19.6728 24.081 19.4087 23.8337L19.295 23.72C19.0394 23.4051 18.6944 23.1751 18.309 23.0587C17.9235 22.9424 17.5068 22.9424 17.1212 23.0587C16.7357 23.1751 16.3908 23.4051 16.1352 23.72L16.0215 23.8337C15.7574 24.081 15.4462 24.2753 15.1052 24.4052C14.7642 24.5351 14.4004 24.5975 14.0347 24.5886C13.669 24.5796 13.309 24.4994 12.9764 24.3525C12.6437 24.2056 12.345 23.9946 12.0962 23.7314C11.8475 23.4683 11.6514 23.1576 11.5194 22.8171C11.3874 22.4766 11.3225 22.1131 11.328 21.7473C11.3335 21.3815 11.4094 21.0205 11.5515 20.6844C11.6936 20.3482 11.8988 20.0434 12.1552 19.7875L12.269 19.6737C12.5839 19.4181 12.8139 19.0732 12.9302 18.6877C13.0466 18.3022 13.0466 17.8855 12.9302 17.5C12.8139 17.1145 12.5839 16.7696 12.269 16.514L12.1552 16.4002C11.8988 16.1444 11.6936 15.8395 11.5515 15.5034C11.4094 15.1672 11.3335 14.8062 11.328 14.4404C11.3225 14.0747 11.3874 13.7111 11.5194 13.3706C11.6514 13.0301 11.8475 12.7194 12.0962 12.4563C12.345 12.1931 12.6437 11.9821 12.9764 11.8353C13.309 11.6884 13.669 11.6081 14.0347 11.5992C14.4004 11.5903 14.7642 11.6526 15.1052 11.7825C15.4462 11.9124 15.7574 12.1067 16.0215 12.354L16.1352 12.4677C16.3908 12.7826 16.7357 13.0126 17.1212 13.129C17.5068 13.2453 17.9235 13.2453 18.309 13.129C18.6944 13.0126 19.0394 12.7826 19.295 12.4677L19.4087 12.354C19.6728 12.1067 19.984 11.9124 20.325 11.7825C20.666 11.6526 21.0298 11.5903 21.3955 11.5992C21.7612 11.6081 22.1212 11.6884 22.4538 11.8353C22.7865 11.9821 23.0852 12.1931 23.334 12.4563C23.5827 12.7194 23.7788 13.0301 23.9108 13.3706C24.0428 13.7111 24.1077 14.0747 24.1022 14.4404C24.0967 14.8062 24.0208 15.1672 23.8787 15.5034C23.7366 15.8395 23.5314 16.1444 23.275 16.4002L23.1612 16.514C22.8463 16.7696 22.6163 17.1145 22.5 17.5Z" stroke="#0F52BA" stroke-width="1.5" stroke-linecap="round" stroke-linejoin="round"/>
  <path d="M6.25 11.25V8.75C6.25 8.08696 6.51339 7.45107 6.98223 6.98223C7.45107 6.51339 8.08696 6.25 8.75 6.25H11.25" stroke="#0F52BA" stroke-width="1.5" stroke-linecap="round" stroke-linejoin="round"/>
  <path d="M6.25 18.75V21.25C6.25 21.913 6.51339 22.5489 6.98223 23.0178C7.45107 23.4866 8.08696 23.75 8.75 23.75H11.25" stroke="#0F52BA" stroke-width="1.5" stroke-linecap="round" stroke-linejoin="round"/>
</svg>